<?xml version="1.0" standalone="no"?>
<!DOCTYPE svg PUBLIC "-//W3C//DTD SVG 20010904//EN"
 "http://www.w3.org/TR/2001/REC-SVG-20010904/DTD/svg10.dtd">
<svg version="1.0" xmlns="http://www.w3.org/2000/svg"
 width="280.000000pt" height="280.000000pt" viewBox="0 0 280.000000 280.000000"
 preserveAspectRatio="xMidYMid meet">
<metadata>
Created by potrace 1.11, written by Peter Selinger 2001-2013
</metadata>
<g transform="translate(0.000000,280.000000) scale(0.100000,-0.100000)"
fill="#000000" stroke="none">
<path d="M1008 2365 c-2 -3 -76 -29 -164 -59 -220 -75 -399 -138 -402 -140 -1
-2 -9 -54 -17 -117 -23 -177 -25 -192 -30 -219 -4 -23 -9 -57 -21 -155 -2 -22
-7 -51 -9 -65 -4 -23 -9 -57 -21 -155 -2 -22 -7 -51 -9 -65 -2 -14 -7 -45 -10
-70 -3 -25 -8 -63 -11 -85 -9 -62 -25 -181 -29 -215 -8 -61 -18 -138 -20 -150
-3 -19 -13 -83 -20 -132 -4 -35 -3 -38 28 -47 17 -5 111 -37 207 -71 235 -83
300 -104 304 -99 2 2 7 36 11 74 3 39 8 79 10 90 5 22 10 61 20 140 4 28 8 61
11 75 2 14 7 52 10 85 7 59 22 116 23 85 1 -17 245 -637 254 -647 7 -6 556 -8
560 -2 2 2 59 149 127 326 69 177 126 321 127 319 3 -3 21 -128 29 -196 3 -25
7 -52 9 -60 2 -8 6 -37 10 -65 6 -52 10 -89 21 -165 4 -25 7 -50 7 -57 0 -7
86 18 216 64 119 41 242 84 274 95 l58 20 -6 42 c-3 22 -8 52 -10 66 -5 34
-14 97 -20 145 -3 22 -7 58 -10 80 -3 22 -7 51 -10 65 -2 14 -7 46 -10 72 -4
42 -8 66 -20 148 -2 14 -9 63 -15 110 -6 47 -13 96 -15 110 -6 43 -18 133 -31
225 -3 28 -8 57 -9 65 -2 9 -6 43 -10 75 -4 33 -9 67 -10 75 -2 8 -6 40 -10
70 -10 78 -16 114 -20 118 -1 2 -34 14 -71 27 -38 13 -161 55 -273 94 -112 39
-206 70 -208 68 -1 -2 -28 -75 -59 -163 -100 -284 -191 -546 -239 -684 -25
-74 -49 -142 -52 -150 -4 -8 -5 -18 -5 -22 1 -5 -1 -8 -6 -8 -4 0 -24 46 -46
103 -21 56 -44 116 -51 132 -10 22 -237 600 -312 793 -5 12 -16 16 -25 7z"/>
</g>
</svg>
